<?xml version="1.0" encoding="utf-8"?>
<!-- Generator: Adobe Illustrator 20.1.0, SVG Export Plug-In . SVG Version: 6.00 Build 0)  -->
<svg version="1.1" id="Layer_1" xmlns="http://www.w3.org/2000/svg" xmlns:xlink="http://www.w3.org/1999/xlink" x="0px" y="0px"
	 viewBox="0 0 12.8 12.8" style="enable-background:new 0 0 12.8 12.8;" xml:space="preserve">
<style type="text/css">
	.st0{fill:#FFFFFF;}
</style>
<path class="st0" d="M7.1,6.4l5.6-5.6c0.2-0.2,0.2-0.5,0-0.7C12.5,0,12.2,0,12,0.1L6.4,5.8L0.8,0.1C0.6,0,0.3,0,0.1,0.1
	S0,0.6,0.1,0.8l5.6,5.6L0.1,12c-0.2,0.2-0.2,0.5,0,0.7c0.1,0.1,0.2,0.1,0.3,0.1s0.2,0,0.3-0.1l5.6-5.6l5.6,5.6
	c0.1,0.1,0.2,0.1,0.3,0.1s0.2,0,0.3-0.1c0.2-0.2,0.2-0.5,0-0.7L7.1,6.4z"/>
</svg>
