<?xml version="1.0" encoding="utf-8"?>
<!-- Generator: Adobe Illustrator 20.1.0, SVG Export Plug-In . SVG Version: 6.00 Build 0)  -->
<svg version="1.1" id="Layer_1" xmlns="http://www.w3.org/2000/svg" xmlns:xlink="http://www.w3.org/1999/xlink" x="0px" y="0px"
	 viewBox="0 0 13.1 13.1" style="enable-background:new 0 0 13.1 13.1;" xml:space="preserve">
<style type="text/css">
	.st0{fill:#B900B4;}
</style>
<g>
	<path class="st0" d="M6.5,1.2c1.7,0,2,0,2.6,0c0.6,0,1,0.1,1.2,0.2c0.3,0.1,0.5,0.3,0.8,0.5c0.2,0.2,0.4,0.4,0.5,0.8
		c0.1,0.2,0.2,0.6,0.2,1.2c0,0.7,0,0.9,0,2.6s0,2,0,2.6c0,0.6-0.1,1-0.2,1.2c-0.1,0.3-0.3,0.5-0.5,0.8c-0.2,0.2-0.4,0.4-0.8,0.5
		c-0.2,0.1-0.6,0.2-1.2,0.2c-0.7,0-0.9,0-2.6,0s-2,0-2.6,0c-0.6,0-1-0.1-1.2-0.2c-0.3-0.1-0.5-0.3-0.8-0.5c-0.2-0.2-0.4-0.4-0.5-0.8
		c-0.1-0.2-0.2-0.6-0.2-1.2c0-0.7,0-0.9,0-2.6s0-2,0-2.6c0-0.6,0.1-1,0.2-1.2c0.1-0.3,0.3-0.5,0.5-0.8c0.2-0.2,0.4-0.4,0.8-0.5
		c0.2-0.1,0.6-0.2,1.2-0.2C4.6,1.2,4.8,1.2,6.5,1.2 M6.5,0c-1.8,0-2,0-2.7,0c-0.7,0-1.2,0.1-1.6,0.3C1.8,0.5,1.5,0.7,1.1,1.1
		C0.7,1.5,0.5,1.8,0.3,2.3C0.2,2.7,0.1,3.1,0,3.8c0,0.7,0,0.9,0,2.7c0,1.8,0,2,0,2.7c0,0.7,0.1,1.2,0.3,1.6c0.2,0.4,0.4,0.8,0.8,1.2
		c0.4,0.4,0.7,0.6,1.2,0.8C2.7,12.9,3.1,13,3.8,13c0.7,0,0.9,0,2.7,0s2,0,2.7,0c0.7,0,1.2-0.1,1.6-0.3c0.4-0.2,0.8-0.4,1.2-0.8
		c0.4-0.4,0.6-0.7,0.8-1.2c0.2-0.4,0.3-0.9,0.3-1.6c0-0.7,0-0.9,0-2.7s0-2,0-2.7c0-0.7-0.1-1.2-0.3-1.6c-0.2-0.4-0.4-0.8-0.8-1.2
		c-0.4-0.4-0.7-0.6-1.2-0.8C10.4,0.2,9.9,0.1,9.2,0C8.5,0,8.3,0,6.5,0L6.5,0z"/>
	<path class="st0" d="M6.5,3.2c-1.9,0-3.4,1.5-3.4,3.4s1.5,3.4,3.4,3.4s3.4-1.5,3.4-3.4S8.4,3.2,6.5,3.2z M6.5,8.7
		c-1.2,0-2.2-1-2.2-2.2c0-1.2,1-2.2,2.2-2.2c1.2,0,2.2,1,2.2,2.2C8.7,7.7,7.7,8.7,6.5,8.7z"/>
	<circle class="st0" cx="10" cy="3" r="0.8"/>
</g>
</svg>
