<?xml version="1.0" encoding="utf-8"?>
<!-- Generator: Adobe Illustrator 20.1.0, SVG Export Plug-In . SVG Version: 6.00 Build 0)  -->
<svg version="1.1"
	 id="svg8" inkscape:version="0.92.3 (2405546, 2018-03-11)" sodipodi:docname="PDF file icon.svg" xmlns:cc="http://creativecommons.org/ns#" xmlns:dc="http://purl.org/dc/elements/1.1/" xmlns:inkscape="http://www.inkscape.org/namespaces/inkscape" xmlns:rdf="http://www.w3.org/1999/02/22-rdf-syntax-ns#" xmlns:sodipodi="http://sodipodi.sourceforge.net/DTD/sodipodi-0.dtd" xmlns:svg="http://www.w3.org/2000/svg"
	 xmlns="http://www.w3.org/2000/svg" xmlns:xlink="http://www.w3.org/1999/xlink" x="0px" y="0px" viewBox="0 0 213.5 262.5"
	 style="enable-background:new 0 0 213.5 262.5;" xml:space="preserve">
<style type="text/css">
	.st0{fill:#800000;}
</style>
<title  id="title2682">PDF file icon</title>
<sodipodi:namedview  bordercolor="#666666" borderopacity="1.0" fit-margin-bottom="0" fit-margin-left="0" fit-margin-right="0" fit-margin-top="0" id="base" inkscape:current-layer="g899" inkscape:cx="122.12727" inkscape:cy="167.02823" inkscape:document-units="mm" inkscape:object-nodes="false" inkscape:pageopacity="0.0" inkscape:pageshadow="2" inkscape:snap-others="false" inkscape:snap-page="false" inkscape:window-height="705" inkscape:window-maximized="1" inkscape:window-width="1366" inkscape:window-x="-8" inkscape:window-y="-8" inkscape:zoom="0.98994949" pagecolor="#ffffff" showgrid="false">
	</sodipodi:namedview>
<g>
	<path class="st0" d="M149.3,9l55.2,55.2v189.3H9V9H149.3 M153,0H0v262.5h213.5v-202L153,0L153,0z"/>
	<g>
		
			<path id="path2697" inkscape:connector-curvature="0" sodipodi:nodetypes="scccscccscccccssscacccsccccccccccccccccccccaccccccccc" class="st0" d="
			M40.4,168.8c-7.6-7.6,0.6-18.1,23-29.2l14.1-7l5.5-12c3-6.6,7.5-17.3,10-23.9l4.5-11.9L94.3,76c-3.8-10.8-5.2-27.1-2.8-33
			c3.3-7.9,14-7.1,18.3,1.4c3.3,6.6,3,18.7-1,33.8l-3.2,12.4l2.8,4.8c1.6,2.7,6.1,9,10.2,14l7.6,9.4l9.4-1.2
			c29.9-3.9,40.2,2.7,40.2,12.2c0,12-23.5,13-43.2-0.9c-4.4-3.1-7.5-6.2-7.5-6.2s-12.4,2.5-18.4,4.2c-6.3,1.7-9.4,2.8-18.6,5.9
			c0,0-3.2,4.7-5.3,8.1c-7.8,12.7-17,23.2-23.5,27C51.9,172.3,44.3,172.6,40.4,168.8z M52.4,164.5c4.3-2.6,12.9-12.9,18.9-22.4
			l2.4-3.8l-11,5.6c-17.1,8.6-24.9,16.7-20.8,21.5C44.1,168.1,46.9,167.9,52.4,164.5L52.4,164.5z M163.1,133.4
			c4.2-2.9,3.6-8.8-1.2-11.2c-3.7-1.9-6.6-2.2-16.2-2.1c-5.9,0.4-15.3,1.6-16.9,1.9c0,0,5.2,3.6,7.5,4.9c3.1,1.8,10.5,5,16,6.7
			C157.7,135.3,160.8,135.1,163.1,133.4L163.1,133.4z M118.6,114.9c-2.5-2.7-6.8-8.2-9.6-12.3c-3.6-4.7-5.4-8-5.4-8
			s-2.6,8.4-4.7,13.4l-6.7,16.5l-1.9,3.7c0,0,10.3-3.4,15.5-4.7c5.5-1.4,16.8-3.7,16.8-3.7L118.6,114.9z M104.2,57.3
			c0.6-5.4,0.9-10.8-0.8-13.6c-4.8-5.3-10.7-0.9-9.7,11.7c0.3,4.2,1.4,11.4,2.8,15.9l2.5,8.1l1.8-6.1
			C101.9,70,103.4,62.8,104.2,57.3L104.2,57.3z"/>
		<g id="g858">
			<path id="path845" inkscape:connector-curvature="0" class="st0" d="M63.7,184.7h10c3.2,0,5.8,0.3,7.7,0.9c2,0.6,3.7,1.9,5,4
				c1.4,2,2,4.5,2,7.4c0,2.6-0.5,4.9-1.6,6.8c-1.1,1.9-2.6,3.3-4.4,4.1c-1.8,0.8-4.7,1.3-8.5,1.3h-3.4v15.7h-6.7L63.7,184.7z
				 M70.4,189.8v14h3.3c2.9,0,5-0.5,6.1-1.6c1.1-1.1,1.7-2.9,1.7-5.4c0-1.8-0.4-3.3-1.1-4.5c-0.7-1.2-1.6-1.9-2.5-2.1
				c-0.9-0.3-2.3-0.4-4.2-0.4L70.4,189.8z"/>
			<path id="path847" inkscape:connector-curvature="0" class="st0" d="M93.5,184.7h9c4.4,0,7.9,0.8,10.5,2.3
				c2.6,1.6,4.6,3.9,5.9,6.9c1.4,3.1,2,6.5,2,10.2c0,3.9-0.6,7.4-1.8,10.5c-1.2,3.1-3,5.5-5.5,7.4c-2.5,1.9-6,2.8-10.6,2.8h-9.5
				V184.7z M100.2,190v29.5h2.8c3.9,0,6.7-1.3,8.4-4c1.7-2.7,2.6-6.3,2.6-10.7c0-9.9-3.7-14.8-11-14.8L100.2,190z"/>
			<path id="path849" inkscape:connector-curvature="0" class="st0" d="M127.4,184.7h22.3v5.3h-15.7v12h12.5v5.3h-12.5v17.5h-6.7
				V184.7z"/>
		</g>
	</g>
</g>
</svg>
