<?xml version="1.0" encoding="utf-8"?>
<!-- Generator: Adobe Illustrator 20.1.0, SVG Export Plug-In . SVG Version: 6.00 Build 0)  -->
<svg version="1.1" id="Layer_1" xmlns="http://www.w3.org/2000/svg" xmlns:xlink="http://www.w3.org/1999/xlink" x="0px" y="0px"
	 viewBox="0 0 13.2 10.7" style="enable-background:new 0 0 13.2 10.7;" xml:space="preserve">
<style type="text/css">
	.st0{fill:#1DA1F2;}
</style>
<path class="st0" d="M4.1,10.7c5,0,7.7-4.1,7.7-7.7c0-0.1,0-0.2,0-0.3c0.5-0.4,1-0.9,1.4-1.4c-0.5,0.2-1,0.4-1.6,0.4
	c0.6-0.3,1-0.9,1.2-1.5c-0.5,0.3-1.1,0.5-1.7,0.7c-1-1.1-2.7-1.1-3.8-0.1c-0.7,0.7-1,1.6-0.8,2.6C4.3,3.2,2.3,2.2,0.9,0.5
	C0.2,1.7,0.6,3.3,1.8,4.1C1.3,4.1,0.9,4,0.5,3.8c0,0,0,0,0,0c0,1.3,0.9,2.4,2.2,2.7c-0.4,0.1-0.8,0.1-1.2,0C1.8,7.6,2.8,8.4,4,8.4
	C3,9.1,1.9,9.5,0.6,9.5c-0.2,0-0.4,0-0.6,0C1.2,10.3,2.7,10.7,4.1,10.7"/>
</svg>
