<?xml version="1.0" encoding="utf-8"?>
<!-- Generator: Adobe Illustrator 20.1.0, SVG Export Plug-In . SVG Version: 6.00 Build 0)  -->
<svg version="1.1" id="Layer_1" xmlns="http://www.w3.org/2000/svg" xmlns:xlink="http://www.w3.org/1999/xlink" x="0px" y="0px"
	 viewBox="0 0 13.1 13.1" style="enable-background:new 0 0 13.1 13.1;" xml:space="preserve">
<style type="text/css">
	.st0{fill:#3D5A98;}
</style>
<path class="st0" d="M12.4,0H0.7C0.3,0,0,0.3,0,0.7v11.6c0,0.4,0.3,0.7,0.7,0.7H7V8H5.3V6H7V4.6C7,2.9,8,2,9.5,2
	C10.2,2,10.9,2,11,2.1v1.8l-1,0c-0.8,0-1,0.4-1,1V6h2l-0.3,2H9v5.1h3.3c0.4,0,0.7-0.3,0.7-0.7V0.7C13.1,0.3,12.7,0,12.4,0z"/>
</svg>
