<?xml version="1.0" encoding="utf-8"?>
<!-- Generator: Adobe Illustrator 20.1.0, SVG Export Plug-In . SVG Version: 6.00 Build 0)  -->
<svg version="1.1" id="Layer_1" xmlns="http://www.w3.org/2000/svg" xmlns:xlink="http://www.w3.org/1999/xlink" x="0px" y="0px"
	 viewBox="0 0 15.5 15.5" style="enable-background:new 0 0 15.5 15.5;" xml:space="preserve">
<style type="text/css">
	.st0{fill:#1B365D;}
</style>
<g>
	<path class="st0" d="M13,8.3c-0.3,0-0.5,0.2-0.5,0.5v5.8H1V3h5.8C7,3,7.3,2.8,7.3,2.5S7,2,6.8,2H0.5C0.2,2,0,2.2,0,2.5V15
		c0,0.3,0.2,0.5,0.5,0.5H13c0.3,0,0.5-0.2,0.5-0.5V8.8C13.5,8.5,13.3,8.3,13,8.3z"/>
	<path class="st0" d="M15.5,0.3c-0.1-0.1-0.1-0.2-0.3-0.3c-0.1,0-0.1,0-0.2,0H8.8C8.5,0,8.3,0.2,8.3,0.5S8.5,1,8.8,1h5L6.4,8.4
		c-0.2,0.2-0.2,0.5,0,0.7c0.1,0.1,0.2,0.1,0.4,0.1s0.3,0,0.4-0.1l7.4-7.4v5c0,0.3,0.2,0.5,0.5,0.5s0.5-0.2,0.5-0.5V0.5
		C15.5,0.4,15.5,0.4,15.5,0.3z"/>
</g>
</svg>
