<?xml version="1.0" encoding="utf-8"?>
<!-- Generator: Adobe Illustrator 20.1.0, SVG Export Plug-In . SVG Version: 6.00 Build 0)  -->
<svg version="1.1" id="Layer_1" xmlns="http://www.w3.org/2000/svg" xmlns:xlink="http://www.w3.org/1999/xlink" x="0px" y="0px"
	 viewBox="0 0 13.2 12" style="enable-background:new 0 0 13.2 12;" xml:space="preserve">
<style type="text/css">
	.st0{fill:#1B365D;}
</style>
<g>
	<g>
		<path class="st0" d="M6.6,7.1l6.3-6.3c0.2-0.2,0.2-0.5,0-0.7s-0.5-0.2-0.7,0L6.6,5.8L1,0.1C0.8,0,0.5,0,0.3,0.1
			C0.2,0.2,0.2,0.3,0.2,0.4s0,0.2,0.1,0.3L6.6,7.1z"/>
	</g>
	<path class="st0" d="M0.5,8.6C0.2,8.6,0,8.8,0,9.1c0,0.3,0.2,0.5,0.5,0.5l12.2,0c0.1,0,0.2,0,0.3-0.1c0.1-0.1,0.1-0.2,0.1-0.3
		c0-0.3-0.2-0.5-0.5-0.5L0.5,8.6z"/>
	<path class="st0" d="M0.5,11.1c-0.3,0-0.5,0.2-0.5,0.5C0,11.8,0.2,12,0.5,12l12.2,0c0.1,0,0.2,0,0.3-0.1c0.1-0.1,0.1-0.2,0.1-0.3
		c0-0.3-0.2-0.5-0.5-0.5L0.5,11.1z"/>
</g>
</svg>
