<?xml version="1.0" encoding="utf-8"?>
<!-- Generator: Adobe Illustrator 20.1.0, SVG Export Plug-In . SVG Version: 6.00 Build 0)  -->
<svg version="1.1" id="Layer_1" xmlns="http://www.w3.org/2000/svg" xmlns:xlink="http://www.w3.org/1999/xlink" x="0px" y="0px"
	 viewBox="0 0 13.1 13.1" style="enable-background:new 0 0 13.1 13.1;" xml:space="preserve">
<style type="text/css">
	.st0{fill:#2867B2;}
</style>
<g>
	<path class="st0" d="M6.6,13.1c-1.9,0-3.7,0-5.6,0c-0.5,0-0.9-0.3-1-0.8c0,0,0-0.1,0-0.1C0,8.4,0,4.7,0,1C0,0.4,0.4,0,0.9,0
		c0.6,0,1.2,0,1.8,0C5.8,0,9,0,12.1,0c0.5,0,0.9,0.3,0.9,0.7c0,0.1,0,0.2,0,0.3c0,3.7,0,7.5,0,11.2c0,0.5-0.4,0.9-0.9,0.9
		c-0.7,0-1.4,0-2.1,0C8.9,13.1,7.7,13.1,6.6,13.1z M7,5.8C7,5.5,7,5.3,7,5c0-0.1,0-0.1-0.1-0.1c-0.5,0-1.1,0-1.6,0
		c-0.1,0-0.2,0-0.2,0.2c0,2,0,4,0,6c0,0.1,0,0.2,0.2,0.2c0.6,0,1.1,0,1.7,0c0.1,0,0.2,0,0.2-0.2c0-1,0-2,0-3c0-0.2,0-0.4,0.1-0.6
		C7.2,7,7.4,6.6,7.8,6.5c0.1,0,0.3,0,0.4,0c0.5,0,0.8,0.2,0.9,0.7C9.2,7.4,9.2,7.7,9.2,8c0,1,0,2,0,3c0,0.1,0,0.2,0.2,0.2
		c0.6,0,1.1,0,1.7,0c0.1,0,0.2,0,0.1-0.2c0-1.1,0-2.2,0-3.3c0-0.5,0-0.9-0.1-1.3c-0.1-0.5-0.3-1-0.8-1.3c-0.3-0.2-0.6-0.3-1-0.3
		c-0.4,0-0.8-0.1-1.2,0.1C7.6,5,7.3,5.3,7,5.8z M3.9,8c0-1,0-2,0-3c0-0.1,0-0.1-0.1-0.1c-0.6,0-1.1,0-1.7,0C2,4.9,1.9,4.9,1.9,5
		c0,2,0,4,0,6c0,0.1,0,0.1,0.1,0.1c0.6,0,1.1,0,1.7,0c0.2,0,0.2,0,0.2-0.2C3.9,10,3.9,9,3.9,8z M2.9,4.1C3.5,4.1,4,3.6,4,2.9
		c0-0.6-0.5-1.1-1.1-1.1c-0.6,0-1.1,0.5-1.1,1.1C1.8,3.6,2.3,4.1,2.9,4.1z"/>
</g>
</svg>
