<?xml version="1.0" encoding="utf-8"?>
<!-- Generator: Adobe Illustrator 20.1.0, SVG Export Plug-In . SVG Version: 6.00 Build 0)  -->
<svg version="1.1" id="Layer_1" xmlns="http://www.w3.org/2000/svg" xmlns:xlink="http://www.w3.org/1999/xlink" x="0px" y="0px"
	 viewBox="0 0 25.7 28.8" style="enable-background:new 0 0 25.7 28.8;" xml:space="preserve">
<style type="text/css">
	.st0{fill:#FFFFFF;}
</style>
<g>
	<path class="st0" d="M9.3,21.6l13.5,0c0.1,0,0.2,0,0.3-0.1c0.1-0.1,0.1-0.2,0.1-0.3c0-0.2-0.2-0.4-0.4-0.4l-13.5,0
		c-0.2,0-0.4,0.2-0.4,0.4S9.1,21.6,9.3,21.6z"/>
	<path class="st0" d="M9.3,24l12.5,0c0.1,0,0.2,0,0.3-0.1c0.1-0.1,0.1-0.2,0.1-0.3c0-0.2-0.2-0.4-0.4-0.4l-12.5,0
		c-0.2,0-0.4,0.2-0.4,0.4S9.1,24,9.3,24z"/>
	<path class="st0" d="M9.3,14.4l12,0c0.1,0,0.2,0,0.3-0.1c0.1-0.1,0.1-0.2,0.1-0.3c0-0.2-0.2-0.4-0.4-0.4l-12,0
		c-0.2,0-0.4,0.2-0.4,0.4S9.1,14.4,9.3,14.4z"/>
	<path class="st0" d="M9.3,16.8l12,0c0.1,0,0.2,0,0.3-0.1c0.1-0.1,0.1-0.2,0.1-0.3c0-0.2-0.2-0.4-0.4-0.4l-12,0
		c-0.2,0-0.4,0.2-0.4,0.4S9.1,16.8,9.3,16.8z"/>
	<path class="st0" d="M9.3,19.2l9,0c0.1,0,0.2,0,0.3-0.1c0.1-0.1,0.1-0.2,0.1-0.3c0-0.2-0.2-0.4-0.4-0.4l-9,0
		c-0.2,0-0.4,0.2-0.4,0.4S9.1,19.2,9.3,19.2z"/>
	<path class="st0" d="M9.3,9.5l11.1,0c0.1,0,0.2,0,0.3-0.1c0.1-0.1,0.1-0.2,0.1-0.3c0-0.2-0.2-0.4-0.4-0.4l-11.1,0
		c-0.2,0-0.4,0.2-0.4,0.4S9.1,9.5,9.3,9.5z"/>
	<path class="st0" d="M9.3,11.9l13,0c0.1,0,0.2,0,0.3-0.1c0.1-0.1,0.1-0.2,0.1-0.3c0-0.2-0.2-0.4-0.4-0.4l-13,0
		c-0.2,0-0.4,0.2-0.4,0.4S9.1,11.9,9.3,11.9z"/>
	<path class="st0" d="M20.3,4l-1-4L0,4.7l5.8,24.1v0.1h19.9V4H20.3z M19.4,4H6.6L18.7,1L19.4,4z M5.8,8.2L4.5,8.5
		C4.3,8.6,4.2,8.8,4.2,9c0.1,0.2,0.2,0.3,0.5,0.3L5.8,9v1.7L5,10.9c-0.2,0.1-0.3,0.2-0.3,0.5c0.1,0.2,0.2,0.3,0.5,0.3l0.6-0.1v1.8
		l-0.2,0c-0.2,0.1-0.3,0.2-0.3,0.5C5.4,13.9,5.6,14,5.8,14l0,0v11.1L1,5.3l4.8-1.2V8.2z M24.9,28H6.7V4.8h18.2V28z"/>
</g>
</svg>
