<?xml version="1.0" encoding="utf-8"?>
<!-- Generator: Adobe Illustrator 20.1.0, SVG Export Plug-In . SVG Version: 6.00 Build 0)  -->
<svg version="1.1" id="Layer_1" xmlns="http://www.w3.org/2000/svg" xmlns:xlink="http://www.w3.org/1999/xlink" x="0px" y="0px"
	 viewBox="0 0 13.1 9.2" style="enable-background:new 0 0 13.1 9.2;" xml:space="preserve">
<style type="text/css">
	.st0{fill:#FF0000;}
	.st1{fill:#FFFFFF;}
</style>
<g>
	<path class="st0" d="M12.8,1.4c-0.2-0.6-0.6-1-1.2-1.2C10.7,0,6.6,0,6.6,0S2.5,0,1.4,0.3c-0.6,0.2-1,0.6-1.2,1.2C0,2.5,0,4.6,0,4.6
		s0,2.1,0.3,3.2c0.2,0.6,0.6,1,1.2,1.2c1,0.3,5.1,0.3,5.1,0.3s4.1,0,5.1-0.3c0.6-0.2,1-0.6,1.2-1.2c0.3-1,0.3-3.2,0.3-3.2
		S13.1,2.5,12.8,1.4z"/>
	<polygon class="st1" points="5.2,6.6 8.6,4.6 5.2,2.6 	"/>
</g>
</svg>
